<?xml version="1.0" encoding="UTF-8" standalone="no"?>
<!DOCTYPE svg PUBLIC "-//W3C//DTD SVG 1.1//EN"
 "http://www.w3.org/Graphics/SVG/1.1/DTD/svg11.dtd">
<!-- Generated by graphviz version 2.38.0 (20140413.2041)
 -->
<!-- Title: controllers_diagram Pages: 1 -->
<svg width="393pt" height="310pt"
 viewBox="0.00 0.00 393.00 309.50" xmlns="http://www.w3.org/2000/svg" xmlns:xlink="http://www.w3.org/1999/xlink">
<g id="graph0" class="graph" transform="scale(1 1) rotate(0) translate(99.5 210)">
<title>controllers_diagram</title>
<polygon fill="none" stroke="none" points="-99.5,99.5 -99.5,-210 293.5,-210 293.5,99.5 -99.5,99.5"/>
<!-- _diagram_info -->
<g id="node1" class="node"><title>_diagram_info</title>
<text text-anchor="start" x="88.5" y="16.4" font-family="Times New Roman,serif" font-size="13.00">Controllers diagram</text>
<text text-anchor="start" x="88.5" y="30.4" font-family="Times New Roman,serif" font-size="13.00">Date: May 08 2017 &#45; 19:33</text>
<text text-anchor="start" x="88.5" y="44.4" font-family="Times New Roman,serif" font-size="13.00">Migration version: 20170507171628</text>
<text text-anchor="start" x="88.5" y="58.4" font-family="Times New Roman,serif" font-size="13.00">Generated by RailRoady 1.5.2</text>
<text text-anchor="start" x="88.5" y="72.4" font-family="Times New Roman,serif" font-size="13.00">http://railroady.prestonlee.com</text>
</g>
<!-- ApplicationController -->
<g id="node2" class="node"><title>ApplicationController</title>
<path fill="none" stroke="black" d="M-83.5,-112.5C-83.5,-112.5 29.5,-112.5 29.5,-112.5 35.5,-112.5 41.5,-118.5 41.5,-124.5 41.5,-124.5 41.5,-193.5 41.5,-193.5 41.5,-199.5 35.5,-205.5 29.5,-205.5 29.5,-205.5 -83.5,-205.5 -83.5,-205.5 -89.5,-205.5 -95.5,-199.5 -95.5,-193.5 -95.5,-193.5 -95.5,-124.5 -95.5,-124.5 -95.5,-118.5 -89.5,-112.5 -83.5,-112.5"/>
<text text-anchor="middle" x="-27" y="-190.3" font-family="Times New Roman,serif" font-size="14.00">ApplicationController</text>
<polyline fill="none" stroke="black" points="-95.5,-182.5 41.5,-182.5 "/>
<text text-anchor="start" x="-87.5" y="-167.3" font-family="Times New Roman,serif" font-size="14.00">current_user</text>
<polyline fill="none" stroke="black" points="-95.5,-159.5 41.5,-159.5 "/>
<polyline fill="none" stroke="black" points="-95.5,-135.5 41.5,-135.5 "/>
<text text-anchor="start" x="-87.5" y="-120.3" font-family="Times New Roman,serif" font-size="14.00">authenticate_request</text>
</g>
<!-- AuthenticationController -->
<g id="node3" class="node"><title>AuthenticationController</title>
<path fill="none" stroke="black" d="M92.5,-33C92.5,-33 221.5,-33 221.5,-33 227.5,-33 233.5,-39 233.5,-45 233.5,-45 233.5,-115 233.5,-115 233.5,-121 227.5,-127 221.5,-127 221.5,-127 92.5,-127 92.5,-127 86.5,-127 80.5,-121 80.5,-115 80.5,-115 80.5,-45 80.5,-45 80.5,-39 86.5,-33 92.5,-33"/>
<text text-anchor="middle" x="157" y="-111.8" font-family="Times New Roman,serif" font-size="14.00">AuthenticationController</text>
<polyline fill="none" stroke="black" points="80.5,-104 233.5,-104 "/>
<text text-anchor="start" x="88.5" y="-88.8" font-family="Times New Roman,serif" font-size="14.00">authenticate</text>
<polyline fill="none" stroke="black" points="80.5,-81 233.5,-81 "/>
<polyline fill="none" stroke="black" points="80.5,-57 233.5,-57 "/>
</g>
<!-- EmployeesController -->
<g id="node4" class="node"><title>EmployeesController</title>
<path fill="none" stroke="black" d="M-68,95C-68,95 42,95 42,95 48,95 54,89 54,83 54,83 54,-61 54,-61 54,-67 48,-73 42,-73 42,-73 -68,-73 -68,-73 -74,-73 -80,-67 -80,-61 -80,-61 -80,83 -80,83 -80,89 -74,95 -68,95"/>
<text text-anchor="middle" x="-13" y="-57.8" font-family="Times New Roman,serif" font-size="14.00">EmployeesController</text>
<polyline fill="none" stroke="black" points="-80,-50 54,-50 "/>
<text text-anchor="start" x="-72" y="-34.8" font-family="Times New Roman,serif" font-size="14.00">create</text>
<text text-anchor="start" x="-72" y="-19.8" font-family="Times New Roman,serif" font-size="14.00">destroy</text>
<text text-anchor="start" x="-72" y="-4.8" font-family="Times New Roman,serif" font-size="14.00">index</text>
<text text-anchor="start" x="-72" y="10.2" font-family="Times New Roman,serif" font-size="14.00">show</text>
<text text-anchor="start" x="-72" y="25.2" font-family="Times New Roman,serif" font-size="14.00">update</text>
<polyline fill="none" stroke="black" points="-80,33 54,33 "/>
<polyline fill="none" stroke="black" points="-80,57 54,57 "/>
<text text-anchor="start" x="-72" y="72.2" font-family="Times New Roman,serif" font-size="14.00">employee_params</text>
<text text-anchor="start" x="-72" y="87.2" font-family="Times New Roman,serif" font-size="14.00">set_employee</text>
</g>
</g>
</svg>
