<?xml version="1.0" encoding="UTF-8" standalone="no"?>
<!DOCTYPE svg PUBLIC "-//W3C//DTD SVG 1.1//EN"
 "http://www.w3.org/Graphics/SVG/1.1/DTD/svg11.dtd">
<!-- Generated by graphviz version 2.38.0 (20140413.2041)
 -->
<!-- Title: models_diagram Pages: 1 -->
<svg width="580pt" height="158pt"
 viewBox="0.00 0.00 580.45 158.00" xmlns="http://www.w3.org/2000/svg" xmlns:xlink="http://www.w3.org/1999/xlink">
<g id="graph0" class="graph" transform="scale(1 1) rotate(0) translate(4 154)">
<title>models_diagram</title>
<polygon fill="none" stroke="none" points="-4,4 -4,-154 576.448,-154 576.448,4 -4,4"/>
<!-- _diagram_info -->
<g id="node1" class="node"><title>_diagram_info</title>
<text text-anchor="start" x="8" y="-135.6" font-family="Times New Roman,serif" font-size="13.00">Models diagram</text>
<text text-anchor="start" x="8" y="-121.6" font-family="Times New Roman,serif" font-size="13.00">Date: May 08 2017 &#45; 19:33</text>
<text text-anchor="start" x="8" y="-107.6" font-family="Times New Roman,serif" font-size="13.00">Migration version: 20170507171628</text>
<text text-anchor="start" x="8" y="-93.6" font-family="Times New Roman,serif" font-size="13.00">Generated by RailRoady 1.5.2</text>
<text text-anchor="start" x="8" y="-79.6" font-family="Times New Roman,serif" font-size="13.00">http://railroady.prestonlee.com</text>
</g>
<!-- ApplicationRecord -->
<g id="node2" class="node"><title>ApplicationRecord</title>
<ellipse fill="none" stroke="black" cx="306.5" cy="-111" rx="79.8859" ry="18"/>
<text text-anchor="middle" x="306.5" y="-107.3" font-family="Times New Roman,serif" font-size="14.00">ApplicationRecord</text>
</g>
<!-- Employee -->
<g id="node3" class="node"><title>Employee</title>
<ellipse fill="none" stroke="black" cx="451.5" cy="-111" rx="46.5926" ry="18"/>
<text text-anchor="middle" x="451.5" y="-107.3" font-family="Times New Roman,serif" font-size="14.00">Employee</text>
</g>
<!-- WorkExperience -->
<g id="node5" class="node"><title>WorkExperience</title>
<ellipse fill="none" stroke="black" cx="451.5" cy="-18" rx="71.4873" ry="18"/>
<text text-anchor="middle" x="451.5" y="-14.3" font-family="Times New Roman,serif" font-size="14.00">WorkExperience</text>
</g>
<!-- Employee&#45;&gt;WorkExperience -->
<g id="edge1" class="edge"><title>Employee&#45;&gt;WorkExperience</title>
<path fill="none" stroke="#a33138" d="M451.5,-84.7285C451.5,-72.7246 451.5,-58.3622 451.5,-46.1291"/>
<ellipse fill="none" stroke="#a33138" cx="451.5" cy="-88.8836" rx="4" ry="4"/>
<polygon fill="#a33138" stroke="#a33138" points="451.5,-46.0397 456,-36.0396 451.5,-41.0397 451.5,-36.0397 451.5,-36.0397 451.5,-36.0397 451.5,-41.0397 447,-36.0397 451.5,-46.0397 451.5,-46.0397"/>
</g>
<!-- User -->
<g id="node4" class="node"><title>User</title>
<ellipse fill="none" stroke="black" cx="544.5" cy="-111" rx="27.8951" ry="18"/>
<text text-anchor="middle" x="544.5" y="-107.3" font-family="Times New Roman,serif" font-size="14.00">User</text>
</g>
</g>
</svg>
