<?xml version="1.0" encoding="UTF-8" standalone="no"?>
<!DOCTYPE svg PUBLIC "-//W3C//DTD SVG 1.1//EN"
 "http://www.w3.org/Graphics/SVG/1.1/DTD/svg11.dtd">
<!-- Generated by graphviz version 2.38.0 (20140413.2041)
 -->
<!-- Title: models_diagram Pages: 1 -->
<svg width="920pt" height="303pt"
 viewBox="0.00 0.00 920.00 303.00" xmlns="http://www.w3.org/2000/svg" xmlns:xlink="http://www.w3.org/1999/xlink">
<g id="graph0" class="graph" transform="scale(1 1) rotate(0) translate(4 299)">
<title>models_diagram</title>
<polygon fill="none" stroke="none" points="-4,4 -4,-299 916,-299 916,4 -4,4"/>
<!-- _diagram_info -->
<g id="node1" class="node"><title>_diagram_info</title>
<text text-anchor="start" x="8" y="-258.6" font-family="Times New Roman,serif" font-size="13.00">Models diagram</text>
<text text-anchor="start" x="8" y="-244.6" font-family="Times New Roman,serif" font-size="13.00">Date: May 08 2017 &#45; 19:33</text>
<text text-anchor="start" x="8" y="-230.6" font-family="Times New Roman,serif" font-size="13.00">Migration version: 20170507171628</text>
<text text-anchor="start" x="8" y="-216.6" font-family="Times New Roman,serif" font-size="13.00">Generated by RailRoady 1.5.2</text>
<text text-anchor="start" x="8" y="-202.6" font-family="Times New Roman,serif" font-size="13.00">http://railroady.prestonlee.com</text>
</g>
<!-- ApplicationRecord -->
<g id="node2" class="node"><title>ApplicationRecord</title>
<ellipse fill="none" stroke="black" cx="306.5" cy="-234" rx="79.8859" ry="18"/>
<text text-anchor="middle" x="306.5" y="-230.3" font-family="Times New Roman,serif" font-size="14.00">ApplicationRecord</text>
</g>
<!-- Employee -->
<g id="node3" class="node"><title>Employee</title>
<path fill="none" stroke="black" d="M416,-173.5C416,-173.5 637,-173.5 637,-173.5 643,-173.5 649,-179.5 649,-185.5 649,-185.5 649,-282.5 649,-282.5 649,-288.5 643,-294.5 637,-294.5 637,-294.5 416,-294.5 416,-294.5 410,-294.5 404,-288.5 404,-282.5 404,-282.5 404,-185.5 404,-185.5 404,-179.5 410,-173.5 416,-173.5"/>
<text text-anchor="middle" x="526.5" y="-279.3" font-family="Times New Roman,serif" font-size="14.00">Employee</text>
<polyline fill="none" stroke="black" points="404,-271.5 649,-271.5 "/>
<text text-anchor="start" x="412" y="-256.3" font-family="Times New Roman,serif" font-size="14.00">id :integer</text>
<text text-anchor="start" x="412" y="-241.3" font-family="Times New Roman,serif" font-size="14.00">name :character varying</text>
<text text-anchor="start" x="412" y="-226.3" font-family="Times New Roman,serif" font-size="14.00">created_at :timestamp without time zone</text>
<text text-anchor="start" x="412" y="-211.3" font-family="Times New Roman,serif" font-size="14.00">updated_at :timestamp without time zone</text>
<text text-anchor="start" x="412" y="-196.3" font-family="Times New Roman,serif" font-size="14.00">role :integer</text>
<text text-anchor="start" x="412" y="-181.3" font-family="Times New Roman,serif" font-size="14.00">birth_date :date</text>
</g>
<!-- WorkExperience -->
<g id="node5" class="node"><title>WorkExperience</title>
<path fill="none" stroke="black" d="M416,-0.5C416,-0.5 637,-0.5 637,-0.5 643,-0.5 649,-6.5 649,-12.5 649,-12.5 649,-124.5 649,-124.5 649,-130.5 643,-136.5 637,-136.5 637,-136.5 416,-136.5 416,-136.5 410,-136.5 404,-130.5 404,-124.5 404,-124.5 404,-12.5 404,-12.5 404,-6.5 410,-0.5 416,-0.5"/>
<text text-anchor="middle" x="526.5" y="-121.3" font-family="Times New Roman,serif" font-size="14.00">WorkExperience</text>
<polyline fill="none" stroke="black" points="404,-113.5 649,-113.5 "/>
<text text-anchor="start" x="412" y="-98.3" font-family="Times New Roman,serif" font-size="14.00">id :integer</text>
<text text-anchor="start" x="412" y="-83.3" font-family="Times New Roman,serif" font-size="14.00">company :character varying</text>
<text text-anchor="start" x="412" y="-68.3" font-family="Times New Roman,serif" font-size="14.00">start :date</text>
<text text-anchor="start" x="412" y="-53.3" font-family="Times New Roman,serif" font-size="14.00">end :date</text>
<text text-anchor="start" x="412" y="-38.3" font-family="Times New Roman,serif" font-size="14.00">employee_id :integer</text>
<text text-anchor="start" x="412" y="-23.3" font-family="Times New Roman,serif" font-size="14.00">created_at :timestamp without time zone</text>
<text text-anchor="start" x="412" y="-8.3" font-family="Times New Roman,serif" font-size="14.00">updated_at :timestamp without time zone</text>
</g>
<!-- Employee&#45;&gt;WorkExperience -->
<g id="edge1" class="edge"><title>Employee&#45;&gt;WorkExperience</title>
<path fill="none" stroke="#f474fc" d="M526.5,-164.905C526.5,-158.915 526.5,-152.824 526.5,-146.766"/>
<ellipse fill="none" stroke="#f474fc" cx="526.5" cy="-169.047" rx="4" ry="4"/>
<polygon fill="#f474fc" stroke="#f474fc" points="526.5,-146.625 531,-136.625 526.5,-141.625 526.5,-136.625 526.5,-136.625 526.5,-136.625 526.5,-141.625 522,-136.625 526.5,-146.625 526.5,-146.625"/>
</g>
<!-- User -->
<g id="node4" class="node"><title>User</title>
<path fill="none" stroke="black" d="M679,-173.5C679,-173.5 900,-173.5 900,-173.5 906,-173.5 912,-179.5 912,-185.5 912,-185.5 912,-282.5 912,-282.5 912,-288.5 906,-294.5 900,-294.5 900,-294.5 679,-294.5 679,-294.5 673,-294.5 667,-288.5 667,-282.5 667,-282.5 667,-185.5 667,-185.5 667,-179.5 673,-173.5 679,-173.5"/>
<text text-anchor="middle" x="789.5" y="-279.3" font-family="Times New Roman,serif" font-size="14.00">User</text>
<polyline fill="none" stroke="black" points="667,-271.5 912,-271.5 "/>
<text text-anchor="start" x="675" y="-256.3" font-family="Times New Roman,serif" font-size="14.00">id :integer</text>
<text text-anchor="start" x="675" y="-241.3" font-family="Times New Roman,serif" font-size="14.00">name :character varying</text>
<text text-anchor="start" x="675" y="-226.3" font-family="Times New Roman,serif" font-size="14.00">email :character varying</text>
<text text-anchor="start" x="675" y="-211.3" font-family="Times New Roman,serif" font-size="14.00">password_digest :character varying</text>
<text text-anchor="start" x="675" y="-196.3" font-family="Times New Roman,serif" font-size="14.00">created_at :timestamp without time zone</text>
<text text-anchor="start" x="675" y="-181.3" font-family="Times New Roman,serif" font-size="14.00">updated_at :timestamp without time zone</text>
</g>
</g>
</svg>
